<?xml version="1.0" encoding="utf-8"?>
<!-- Generator: Adobe Illustrator 16.0.0, SVG Export Plug-In . SVG Version: 6.00 Build 0)  -->
<!DOCTYPE svg PUBLIC "-//W3C//DTD SVG 1.1//EN" "http://www.w3.org/Graphics/SVG/1.1/DTD/svg11.dtd">
<svg version="1.1" id="Layer_1" xmlns="http://www.w3.org/2000/svg" xmlns:xlink="http://www.w3.org/1999/xlink" x="0px" y="0px"
	 width="128px" height="128px" viewBox="0 0 128 128" enable-background="new 0 0 128 128" xml:space="preserve">
<g>
	<g>
		<polygon fill="#282D33" points="117.996,117.965 100.037,98.418 47.864,98.418 47.864,88.511 51.864,88.511 51.864,94.418 
			101.795,94.418 113.996,107.699 113.996,94.418 124,94.418 124,36.557 115.691,36.557 115.691,32.557 128,32.557 128,98.418 
			117.996,98.418 		"/>
	</g>
	<g>
		<path fill="#282D33" d="M16.817,107.398V82.971H0V10.035h110.152v72.936H41.631L16.817,107.398z M4,78.971h16.817v18.877
			l19.176-18.877h66.16V14.035H4V78.971z"/>
	</g>
	<g>
		<rect x="22.738" y="31.119" fill="#282D33" width="64.679" height="4"/>
	</g>
	<g>
		<rect x="22.738" y="43.816" fill="#282D33" width="64.679" height="4"/>
	</g>
	<g>
		<rect x="22.738" y="56.515" fill="#282D33" width="64.679" height="4"/>
	</g>
</g>
</svg>
