<?xml version="1.0" encoding="UTF-8"?>
<!DOCTYPE svg PUBLIC "-//W3C//DTD SVG 1.1//EN" "http://www.w3.org/Graphics/SVG/1.1/DTD/svg11.dtd">
<!-- Creator: CorelDRAW -->
<svg xmlns="http://www.w3.org/2000/svg" xml:space="preserve" width="6.82666in" height="6.82666in" style="shape-rendering:geometricPrecision; text-rendering:geometricPrecision; image-rendering:optimizeQuality; fill-rule:evenodd; clip-rule:evenodd"
viewBox="0 0 6.82666 6.82666"
 xmlns:xlink="http://www.w3.org/1999/xlink">
 <defs>
  <style type="text/css">
   <![CDATA[
    .fil2 {fill:none}
    .fil1 {fill:#212121}
    .fil0 {fill:#212121;fill-rule:nonzero}
   ]]>
  </style>
 </defs>
 <g id="Layer_x0020_1">
  <metadata id="CorelCorpID_0Corel-Layer"/>
  <path class="fil0" d="M1.06666 1.17333l4.69334 0 0.106669 0 0 0.106669 0 4.26667 0 0.106669 -0.106669 0 -4.69334 0 -0.106669 0 0 -0.106669 0 -4.26667 0 -0.106669 0.106669 0zm4.58667 0.213339l-4.48 0 0 4.05333 4.48 0 0 -4.05333z"/>
  <polygon class="fil0" points="1.06666,1.81333 5.76,1.81333 5.76,2.02667 1.06666,2.02667 "/>
  <circle class="fil1" cx="5.06481" cy="1.59779" r="0.10274"/>
  <circle class="fil1" cx="4.68941" cy="1.59779" r="0.10274"/>
  <circle class="fil1" cx="4.314" cy="1.59779" r="0.10274"/>
  <path class="fil0" d="M1.73272 1.93291l-0.128988 1.03021c0.0982913,0.15526 0.188791,0.233921 0.271323,0.234398 0.0880984,0.000511811 0.186516,-0.0876299 0.295445,-0.266276l0.0908386 -0.148969 0.0908307 0.148969c0.108925,0.178646 0.207343,0.266787 0.295441,0.266276 0.0878622,-0.000507874 0.184752,-0.0896142 0.290469,-0.265441l0.0912559 -0.151768 0.091248 0.151768c0.105713,0.175827 0.202606,0.264933 0.290472,0.265441 0.0881024,0.000511811 0.18652,-0.0876299 0.295445,-0.266276l0.0908307 -0.148969 0.0908386 0.148969c0.108929,0.178646 0.207343,0.266787 0.295441,0.266276 0.0878622,-0.000507874 0.184756,-0.0896181 0.290469,-0.265441l0.091248 -0.151768 0.0912559 0.151768c0.105717,0.175827 0.202606,0.264933 0.290469,0.265441 0.082748,0.000480315 0.174591,-0.0772441 0.275697,-0.234701l-0.133209 -0.980366 0.210835 -0.0283307 0.138374 1.01837 -0.0145827 0.0695827c-0.150681,0.247126 -0.310063,0.368917 -0.477949,0.367945 -0.133768,-0.000771654 -0.260693,-0.0793189 -0.380886,-0.234303 -0.120185,0.154988 -0.247114,0.233531 -0.380886,0.234303 -0.134528,0.000779528 -0.263598,-0.0772874 -0.38711,-0.2355 -0.123512,0.158209 -0.252583,0.23628 -0.387114,0.2355 -0.133772,-0.000771654 -0.260701,-0.079315 -0.38089,-0.234303 -0.120189,0.154988 -0.247118,0.233531 -0.380886,0.234303 -0.134528,0.000779528 -0.263598,-0.0772913 -0.38711,-0.2355 -0.123516,0.158213 -0.252587,0.23628 -0.387114,0.2355 -0.168122,-0.000968504 -0.325429,-0.124768 -0.472138,-0.36878l-0.0145827 -0.0675 0.133551 -1.06667 0.211669 0.0258346z"/>
  <polygon class="fil0" points="1.92,4.15999 4.90667,4.15999 4.90667,4.37333 1.92,4.37333 "/>
  <polygon class="fil0" points="1.92,4.69332 4.90667,4.69332 4.90667,4.90666 1.92,4.90666 "/>
 </g>
 <rect class="fil2" width="6.82666" height="6.82666"/>
</svg>
