<?xml version="1.0" encoding="UTF-8"?>
<!DOCTYPE svg PUBLIC "-//W3C//DTD SVG 1.1//EN" "http://www.w3.org/Graphics/SVG/1.1/DTD/svg11.dtd">
<!-- Creator: CorelDRAW -->
<svg xmlns="http://www.w3.org/2000/svg" xml:space="preserve" width="6.82666in" height="6.82666in" style="shape-rendering:geometricPrecision; text-rendering:geometricPrecision; image-rendering:optimizeQuality; fill-rule:evenodd; clip-rule:evenodd"
viewBox="0 0 6.82666 6.82666"
 xmlns:xlink="http://www.w3.org/1999/xlink">
 <defs>
  <style type="text/css">
   <![CDATA[
    .fil13 {fill:none}
    .fil10 {fill:#202020}
    .fil6 {fill:#2F2F2F}
    .fil0 {fill:#444444}
    .fil8 {fill:#7B7B7B}
    .fil12 {fill:#A1A1A1}
    .fil3 {fill:darkgray}
    .fil9 {fill:#B4B4B5}
    .fil4 {fill:#BCBCBC}
    .fil11 {fill:#C9C9C9}
    .fil5 {fill:#D1D1D1}
    .fil7 {fill:#F7F7F7}
    .fil2 {fill:white}
    .fil1 {fill:#2F2F2F;fill-rule:nonzero}
   ]]>
  </style>
 </defs>
 <g id="Layer_x0020_1">
  <metadata id="CorelCorpID_0Corel-Layer"/>
  <path class="fil0" d="M3.51283 1.56614l2.26431 0 0 1.89757 -2.26431 0c0,-0.664063 0,-1.18462 0,-1.89757z"/>
  <path class="fil1" d="M5.92796 3.46371c0.0294528,0 0.0533346,-0.0238819 0.0533346,-0.0533346 0,-0.0294528 -0.0238819,-0.0533346 -0.0533346,-0.0533346l-2.57335 0c-0.0294528,0 -0.0533346,0.0238819 -0.0533346,0.0533346 0,0.0294528 0.0238819,0.0533346 0.0533346,0.0533346l2.57335 0z"/>
  <path class="fil1" d="M5.92796 1.58687c0.0294528,0 0.0533346,-0.0238819 0.0533346,-0.0533346 0,-0.0294528 -0.0238819,-0.0533346 -0.0533346,-0.0533346l-2.57335 0c-0.0294528,0 -0.0533346,0.0238819 -0.0533346,0.0533346 0,0.0294528 0.0238819,0.0533346 0.0533346,0.0533346l2.57335 0z"/>
  <path class="fil2" d="M4.04774 2.20013l0.333366 0c0.0294528,0 0.0533346,-0.0238819 0.0533346,-0.0533346 0,-0.0294528 -0.0238819,-0.0533346 -0.0533346,-0.0533346l-0.333366 0c-0.0294528,0 -0.0533346,0.0238819 -0.0533346,0.0533346 0,0.0294528 0.0238819,0.0533346 0.0533346,0.0533346z"/>
  <path class="fil2" d="M4.04774 2.42379l1.1867 0c0.0294528,0 0.0533346,-0.0238819 0.0533346,-0.0533346 0,-0.0294528 -0.0238819,-0.0533346 -0.0533346,-0.0533346l-1.1867 0c-0.0294528,0 -0.0533346,0.0238819 -0.0533346,0.0533346 0,0.0294528 0.0238819,0.0533346 0.0533346,0.0533346z"/>
  <path class="fil2" d="M4.04774 2.63712l1.1867 0c0.0294528,0 0.0533346,-0.0238819 0.0533346,-0.0533346 0,-0.0294528 -0.0238819,-0.0533346 -0.0533346,-0.0533346l-1.1867 0c-0.0294528,0 -0.0533346,0.0238819 -0.0533346,0.0533346 0,0.0294528 0.0238819,0.0533346 0.0533346,0.0533346z"/>
  <path class="fil2" d="M4.04774 2.85044l1.1867 0c0.0294528,0 0.0533346,-0.0238819 0.0533346,-0.0533346 0,-0.0294528 -0.0238819,-0.0533346 -0.0533346,-0.0533346l-1.1867 0c-0.0294528,0 -0.0533346,0.0238819 -0.0533346,0.0533346 0,0.0294528 0.0238819,0.0533346 0.0533346,0.0533346z"/>
  <path class="fil3" d="M2.18891 1.92006l0.436547 0c0.221098,0 0.401984,0.086685 0.401984,0.307764l0 1.27728 -1.24051 0 0 -1.27728c0,-0.221102 0.180882,-0.307764 0.40198,-0.307764z"/>
  <rect class="fil4" x="2.25174" y="1.6563" width="0.311219" height="0.397016"/>
  <g id="_291566696">
   <path id="_291566840" class="fil4" d="M2.74173 1.54621c0,0 0.164449,-0.204906 0.0846732,-0.249453 0,0 -0.178866,0.00485827 -0.0846732,0.249453z"/>
   <path id="_291567152" class="fil4" d="M2.07264 1.54621c0,0 -0.164449,-0.204906 -0.0846693,-0.249453 0,0 0.178862,0.00485827 0.0846693,0.249453z"/>
  </g>
  <ellipse class="fil5" cx="2.40718" cy="1.3375" rx="0.376866" ry="0.48417"/>
  <path class="fil6" d="M2.0581 1.37983c0,0 0.0949134,-0.175862 0.108941,-0.231965 0,0 0.308567,0.336618 0.561031,0.0280512l0.0140276 0.238441c0,0 0.266488,-0.532984 -0.336622,-0.561035 0,0 -0.575059,0.0140276 -0.347378,0.526508z"/>
  <polygon class="fil7" points="2.42482,2.15789 2.56777,3.05426 2.40718,3.29385 2.24659,3.05426 2.38954,2.15789 2.40718,2.15694 "/>
  <polygon class="fil7" points="2.46633,2.11423 2.40718,2.05354 2.34803,2.11423 2.40718,2.17633 "/>
  <path class="fil5" d="M3.97554 2.43461c-0.00289764,0.0129449 0.0364213,-0.128504 0.0364213,-0.128504l0.218209 0.0538307c0,0 0.124803,0.0719685 0.0502244,0.166205 0,0 -0.00712992,-0.0255315 -0.0687638,-0.127299l-0.0896772 -0.0167559c0,0 -0.0382283,0.0476378 0.0573031,0.0660079 0,0 -0.0286772,0.0644094 -0.183539,0.00461811l-0.0201772 -0.0181024z"/>
  <path class="fil3" d="M2.45983 2.26653c0,0 0.0220315,-0.104488 0.0955433,-0.186063 0.0767008,-0.0851063 0.206311,-0.146996 0.270327,-0.123l1.21042 0.341681 -0.050252 0.171622 -0.960232 -0.22272 -0.0307717 0.123551 -0.535035 -0.105071z"/>
  <path class="fil8" d="M2.71794 1.9308c-0.0382362,-0.00609449 -0.0811181,-0.01 -0.125831,-0.0107402l-0.0291575 0 -0.155772 0.133264 -0.155772 -0.133264 -0.0291575 0c-0.0447126,0.000740157 -0.0875984,0.00464567 -0.125835,0.0107402l0.174819 0.262228 0.135945 -0.139492 0.135945 0.139492 0.174815 -0.262228z"/>
  <path class="fil5" d="M1.67269 3.41c0.0131299,0.00190551 -0.133043,-0.0117717 -0.133043,-0.0117717l-0.0274803 0.223063c0,0 0.0227559,0.142256 0.13739,0.106165 0,0 -0.021315,-0.0157638 -0.0944291,-0.109622l0.0163071 -0.0897598c0,0 0.0581339,-0.0187362 0.041248,0.0770669 0,0 0.0703976,-0.00383858 0.0697323,-0.169843l-0.00972441 -0.0252992z"/>
  <path class="fil3" d="M2.05589 1.93393c0,0 -0.10548,-0.0166575 -0.207898,0.0229528 -0.106854,0.0413228 -0.210874,0.140366 -0.211272,0.208728l-0.112185 1.25271 0.17826 0.0142165 0.134157 -0.976551 0.126409 0.0152874 0.0925276 -0.537346z"/>
  <g id="_291564272">
   <rect id="_291565112" class="fil9" x="1.55065" y="5.22666" width="0.316858" height="0.34926"/>
   <path id="_291565040" class="fil10" d="M2.5014 5.91569c0,0 -0.00970079,-0.298421 -0.283106,-0.439894l3.14961e-005 -3.14961e-005c-0.0535866,-0.0277362 -0.117276,-0.0494646 -0.193031,-0.0617126 -0.0389252,-0.00620472 -0.0825866,-0.0101732 -0.12811,-0.0109331l-0.029685 0 -0.317189 0 -0.0296811 0c-0.0455236,0.000759843 -0.089185,0.00472835 -0.12811,0.0109331 -0.0757559,0.012248 -0.139445,0.0339764 -0.193031,0.0617126l2.75591e-005 3.14961e-005c-0.273406,0.141472 -0.283106,0.439894 -0.283106,0.439894l0.698811 0.0115 3.93701e-006 3.93701e-006 0.0936811 0.00153937 0.0936811 -0.00153937 3.93701e-006 -3.93701e-006 0.698811 -0.0115z"/>
   <path id="_291565784" class="fil11" d="M1.70908 4.32857c0.207051,0 0.374898,0.223154 0.374898,0.498437 0,0.275283 -0.167846,0.498437 -0.374898,0.498437 -0.207047,0 -0.374894,-0.223154 -0.374894,-0.498437 0,-0.275283 0.167846,-0.498437 0.374894,-0.498437z"/>
   <path id="_291565256" class="fil6" d="M1.70908 4.32857c0.212524,0 0.384807,0.209303 0.384807,0.467492 0,0.258185 -0.172283,0.467488 -0.384807,0.467488 -0.212528,0 -0.384811,-0.209303 -0.384811,-0.467488 0,-0.258189 0.172283,-0.467492 0.384811,-0.467492z"/>
   <polygon id="_291565760" class="fil12" points="1.45144,5.3455 1.70891,5.3455 1.96637,5.3455 1.97661,5.40888 1.70891,5.40807 1.4412,5.40888 "/>
   <g>
    <g>
     <rect id="_291565352" class="fil9" x="3.31816" y="5.22666" width="0.316858" height="0.34926"/>
     <path id="_291565736" class="fil10" d="M4.26891 5.91569c0,0 -0.00970079,-0.298421 -0.283106,-0.439894l3.14961e-005 -3.14961e-005c-0.0535866,-0.0277362 -0.117276,-0.0494646 -0.193031,-0.0617126 -0.0389252,-0.00620472 -0.0825866,-0.0101732 -0.12811,-0.0109331l-0.029685 0 -0.317189 0 -0.0296811 0c-0.0455236,0.000759843 -0.089185,0.00472835 -0.12811,0.0109331 -0.0757559,0.012248 -0.139445,0.0339764 -0.193031,0.0617126l2.75591e-005 3.14961e-005c-0.273406,0.141472 -0.283106,0.439894 -0.283106,0.439894l0.698811 0.0115 3.93701e-006 3.93701e-006 0.0936811 0.00153937 0.0936811 -0.00153937 3.93701e-006 -3.93701e-006 0.698811 -0.0115z"/>
     <path id="_291565064" class="fil11" d="M3.47659 4.32857c0.207051,0 0.374898,0.223154 0.374898,0.498437 0,0.275283 -0.167846,0.498437 -0.374898,0.498437 -0.207047,0 -0.374894,-0.223154 -0.374894,-0.498437 0,-0.275283 0.167846,-0.498437 0.374894,-0.498437z"/>
     <path id="_291565616" class="fil6" d="M3.47659 4.32857c0.212524,0 0.384811,0.209303 0.384811,0.467492 0,0.258185 -0.172287,0.467488 -0.384811,0.467488 -0.212528,0 -0.384811,-0.209303 -0.384811,-0.467488 0,-0.258189 0.172283,-0.467492 0.384811,-0.467492z"/>
    </g>
    <polygon id="_291564608" class="fil12" points="3.21894,5.3455 3.47641,5.3455 3.73388,5.3455 3.74411,5.40888 3.47641,5.40807 3.2087,5.40888 "/>
   </g>
   <g>
    <g>
     <rect id="_291564872" class="fil9" x="5.08566" y="5.22666" width="0.316858" height="0.34926"/>
     <path id="_291564584" class="fil10" d="M6.03641 5.91569c0,0 -0.00970079,-0.298421 -0.283106,-0.439894l3.14961e-005 -3.14961e-005c-0.0535866,-0.0277362 -0.117276,-0.0494646 -0.193031,-0.0617126 -0.0389252,-0.00620472 -0.0825866,-0.0101732 -0.12811,-0.0109331l-0.029685 0 -0.317189 0 -0.0296811 0c-0.0455236,0.000759843 -0.089185,0.00472835 -0.12811,0.0109331 -0.0757559,0.012248 -0.139445,0.0339764 -0.193031,0.0617126l2.75591e-005 3.14961e-005c-0.273406,0.141472 -0.283106,0.439894 -0.283106,0.439894l0.698811 0.0115 3.93701e-006 3.93701e-006 0.0936811 0.00153937 0.0936811 -0.00153937 3.93701e-006 -3.93701e-006 0.698811 -0.0115z"/>
     <path id="_291564464" class="fil11" d="M5.24409 4.32857c0.207051,0 0.374898,0.223154 0.374898,0.498437 0,0.275283 -0.167846,0.498437 -0.374898,0.498437 -0.207047,0 -0.374894,-0.223154 -0.374894,-0.498437 0,-0.275283 0.167846,-0.498437 0.374894,-0.498437z"/>
     <path id="_291564488" class="fil6" d="M5.24409 4.32857c0.212524,0 0.384811,0.209303 0.384811,0.467492 0,0.258185 -0.172287,0.467488 -0.384811,0.467488 -0.212528,0 -0.384811,-0.209303 -0.384811,-0.467488 0,-0.258189 0.172283,-0.467492 0.384811,-0.467492z"/>
    </g>
    <polygon id="_291564992" class="fil12" points="4.98644,5.3455 5.24391,5.3455 5.50138,5.3455 5.51162,5.40888 5.24391,5.40807 4.97621,5.40888 "/>
   </g>
  </g>
 </g>
 <rect class="fil13" width="6.82666" height="6.82666"/>
</svg>
